<?xml version="1.0" standalone="no"?>
<!DOCTYPE svg PUBLIC "-//W3C//DTD SVG 20010904//EN"
 "http://www.w3.org/TR/2001/REC-SVG-20010904/DTD/svg10.dtd">
<svg version="1.0" xmlns="http://www.w3.org/2000/svg"
 width="74.000000pt" height="74.000000pt" viewBox="0 0 74.000000 74.000000"
 preserveAspectRatio="xMidYMid meet">
<metadata>
Created by potrace 1.11, written by Peter Selinger 2001-2013
</metadata>
<g transform="translate(0.000000,74.000000) scale(0.100000,-0.100000)"
fill="#000000" stroke="none">
<path d="M205 639 l-130 -68 0 -82 0 -82 130 -68 c72 -38 133 -69 136 -69 3 0
5 35 4 78 l0 77 -58 30 c-31 17 -57 32 -57 35 0 3 25 19 55 35 47 26 55 34 56
60 2 54 1 116 -2 120 -2 1 -62 -28 -134 -66z"/>
<path d="M390 632 l0 -79 60 -29 c57 -28 74 -43 48 -45 -7 0 -33 -13 -58 -28
l-45 -27 -1 -72 c-1 -41 3 -72 9 -72 5 0 67 30 138 67 l129 67 0 76 0 77 -102
53 c-57 30 -116 62 -133 72 -16 10 -33 18 -37 18 -5 0 -8 -35 -8 -78z"/>
<path d="M70 262 l0 -78 43 -23 c23 -13 90 -47 149 -77 l107 -55 138 72 c76
39 142 76 147 80 13 11 15 149 3 149 -5 0 -69 -31 -142 -70 -73 -38 -138 -70
-143 -70 -6 0 -70 31 -141 69 -72 38 -138 71 -146 75 -13 4 -15 -7 -15 -72z"/>
</g>
</svg>
